<svg width="50" height="50" viewBox="0 0 50 50" fill="none" xmlns="http://www.w3.org/2000/svg">
  <path d="M8.06011 31.2388C8.71585 31.9033 9.80874 31.9033 10.4645 31.2388L26.2022 15.1782C28.4973 12.8521 32.1038 12.8521 34.2896 15.1782C34.9454 15.8427 36.0383 15.8427 36.694 15.1782C37.3497 14.5136 37.3497 13.406 36.694 12.7414C33.0874 9.08621 27.2951 9.08621 23.7978 12.7414L8.06011 28.802C7.40437 29.4666 7.40437 30.5742 8.06011 31.2388ZM15.7104 36.5554L31.4481 20.6055C32.1038 19.941 32.1038 18.8333 31.4481 18.1688C30.7924 17.5042 29.6995 17.5042 29.0437 18.1688L13.306 34.1186C11.0109 36.4446 7.40437 36.4446 5.21858 34.1186C2.9235 31.7926 2.9235 28.1374 5.21858 25.9221L17.8962 12.9629C18.5519 12.2983 18.5519 11.1907 17.8962 10.5261C17.2404 9.86155 16.1475 9.86155 15.4918 10.5261L2.70492 23.4854C-0.901639 27.1405 -0.901639 33.011 2.70492 36.5554C6.31148 40.2105 12.1038 40.2105 15.7104 36.5554ZM26.2022 47.2994L42.0492 31.2388C42.7049 30.5742 42.7049 29.4666 42.0492 28.802C41.3934 28.1374 40.3005 28.1374 39.6448 28.802L23.7978 44.8626C21.5027 47.1886 17.8962 47.1886 15.7104 44.8626C15.0546 44.198 13.9617 44.198 13.306 44.8626C12.6503 45.5272 12.6503 46.6348 13.306 47.2994C16.8033 50.8438 22.7049 50.8438 26.2022 47.2994ZM34.6175 49.4039L47.2951 36.5554C50.9016 32.9002 50.9016 27.0298 47.2951 23.4854C43.6885 19.8302 37.8962 19.8302 34.3989 23.4854L18.5519 39.4352C17.8962 40.0998 17.8962 41.2074 18.5519 41.872C19.2077 42.5366 20.3005 42.5366 20.9563 41.872L36.8033 25.8114C39.0984 23.4854 42.7049 23.4854 44.8907 25.8114C47.1858 28.1374 47.1858 31.7926 44.8907 34.0078L32.2131 47.0778C31.5574 47.7424 31.5574 48.85 32.2131 49.5146C32.8689 50.1792 33.9618 50.1792 34.6175 49.4039Z"
        fill="#222222"/>
</svg>
