<svg width="50" height="50" viewBox="0 0 50 50" fill="none" xmlns="http://www.w3.org/2000/svg">
  <path d="M28.6163 31.3602C27.6522 31.8315 27.2344 32.7113 27.2344 35.102C27.2344 35.102 27.7164 34.6307 28.488 34.3475C29.0507 34.1433 29.452 33.8763 29.7416 33.672C30.5774 33.0592 30.7056 32.3209 30.7056 31.0305C30.6911 31.0305 29.3734 30.9517 28.6163 31.3602Z" fill="black"/>
  <path d="M22.7162 31.9102C21.8804 32.5857 21.6715 33.7487 21.6715 33.7487L18.9698 43.8717L16.7522 35.5892C16.5432 34.7094 16.1254 33.6253 15.4986 32.8709C14.7269 31.9122 13.1196 31.8495 12.9272 31.8495C12.7824 31.8495 11.1916 31.9122 10.3558 32.8709C9.729 33.6253 9.31113 34.7094 9.10219 35.5892L7.01283 43.8737L4.30906 33.7487C4.30906 33.7487 4.10012 32.6646 3.26438 31.9102C1.94456 30.7472 0 31.0304 0 31.0304L5.14481 49.9717C5.14481 49.9717 6.8163 50.1133 7.65205 49.7047C8.76086 49.1546 9.32354 48.7622 9.95035 46.1673C10.5792 43.8575 12.2507 37.1284 12.379 36.6572C12.4431 36.4529 12.5879 35.84 13.0058 35.84C13.4237 35.84 13.5685 36.3902 13.6326 36.6572C13.7774 37.1284 15.4324 43.8555 16.0612 46.1673C16.7522 48.746 17.2342 49.1546 18.3595 49.7047C19.1953 50.1133 20.8668 49.9717 20.8668 49.9717L25.9806 31.0304C25.9806 31.0304 24.0339 30.7634 22.7162 31.9102ZM30.6909 34.0804C30.6909 34.0804 30.3372 34.5517 29.6463 34.9602C29.1643 35.2272 28.7464 35.3688 28.2644 35.6358C27.4286 36.0443 27.2197 36.4529 27.2197 37.0657V49.907C27.2197 49.907 28.5374 50.0486 29.3732 49.64C30.482 49.0899 30.6909 48.5559 30.6909 46.2441V34.8348V34.0804ZM43.4712 40.5405L50 31.0931C50 31.0931 47.2983 30.6218 45.8999 31.8475C45 32.6019 44.1001 34.0157 44.1001 34.0157L41.7356 37.4116C41.5908 37.6158 41.4626 37.7574 41.2536 37.7574C41.0447 37.7574 40.8357 37.5531 40.7716 37.4116L38.4092 34.0157C38.4092 34.0157 37.4452 32.6646 36.6094 31.8475C35.2276 30.6218 32.5093 31.0931 32.5093 31.0931L38.8271 40.5243L32.3645 49.9555C32.3645 49.9555 35.211 50.3014 36.6094 49.0757C37.5093 48.3213 38.3451 47.0329 38.3451 47.0329L40.7075 43.637C40.8523 43.4328 40.9806 43.2912 41.1895 43.2912C41.3984 43.2912 41.6074 43.4955 41.6715 43.637L44.0339 47.0329C44.0339 47.0329 44.9338 48.3213 45.7695 49.0757C47.1514 50.3014 49.9338 49.9555 49.9338 49.9555L43.4712 40.5405Z" fill="black"/>
</svg>
