<svg width="50" height="50" viewBox="0 0 50 50" fill="none" xmlns="http://www.w3.org/2000/svg">
      <path d="M3.55078 25.0198C3.55078 33.5096 8.48956 40.8566 15.6324 44.326L5.42833 16.2852C4.20384 18.9382 3.55078 21.877 3.55078 25.0198Z" fill="#464342" />
      <path d="M39.4689 23.9181C39.4689 21.2651 38.5301 19.4283 37.7138 17.9998C36.6118 16.2447 35.5914 14.7345 35.5914 12.9794C35.5914 11.0202 37.1016 9.18344 39.1832 9.18344C39.2648 9.18344 39.3873 9.18344 39.4689 9.18344C35.673 5.67323 30.5709 3.55078 25.0199 3.55078C17.5097 3.55078 10.9383 7.38752 7.10156 13.2243C7.59136 13.2243 8.08115 13.2651 8.48932 13.2651C10.7342 13.2651 14.2036 12.9794 14.2036 12.9794C15.3465 12.8977 15.5097 14.612 14.3261 14.7345C14.3261 14.7345 13.1832 14.8569 11.8771 14.9385L19.673 38.163L24.3669 24.0814L21.0199 14.9385C19.8771 14.8569 18.775 14.7345 18.775 14.7345C17.6322 14.6528 17.7546 12.8977 18.8975 12.9794C18.8975 12.9794 22.4485 13.2651 24.5301 13.2651C26.775 13.2651 30.2444 12.9794 30.2444 12.9794C31.3873 12.8977 31.5505 14.612 30.3669 14.7345C30.3669 14.7345 29.1832 14.8569 27.9179 14.9385L35.673 37.9998L37.7954 30.8569C38.775 27.8773 39.4689 25.7549 39.4689 23.9181Z" fill="#464342" />
      <path d="M25.3884 26.8984L18.9395 45.5923C20.8578 46.1637 22.8986 46.4495 24.9803 46.4495C27.4701 46.4495 29.8782 46.0005 32.1231 45.225C32.0823 45.1433 32.0007 45.0209 31.9599 44.9393L25.3884 26.8984Z" fill="#464342" />
      <path d="M43.8377 14.6934C43.9193 15.3872 44.001 16.1219 44.001 16.8974C44.001 19.0607 43.5928 21.5097 42.3683 24.5709L35.7969 43.5097C42.1642 39.7954 46.4499 32.8974 46.4499 24.9791C46.4499 21.2648 45.5112 17.7546 43.8377 14.6934Z" fill="#464342" />
      <path d="M25.0204 0C11.2245 0 0 11.2245 0 25.0204C0 38.8163 11.2245 50.0408 25.0204 50.0408C38.8163 50.0408 50.0408 38.8163 50.0408 25.0204C50 11.2245 38.7755 0 25.0204 0ZM25.0204 48.8571C11.8367 48.8571 1.14286 38.1633 1.14286 25.0204C1.14286 11.8367 11.8367 1.14286 25.0204 1.14286C38.1633 1.14286 48.898 11.8367 48.898 25.0204C48.8571 38.1633 38.1633 48.8571 25.0204 48.8571Z" fill="#464342" />
</svg>
